<?xml version="1.0" encoding="UTF-8" standalone="no"?>
<!-- Created by Symbolator http://kevinpt.github.io/symbolator -->
<svg xmlns="http://www.w3.org/2000/svg"
xmlns:xlink="http://www.w3.org/1999/xlink"
xml:space="preserve"
width="645" height="368" viewBox="-108 -20 645.0 368.0" version="1.1">
<style type="text/css">
<![CDATA[
.fnt1 {fill:#000000;
    font-family:Helvetica; font-size:12pt; font-weight:normal; font-style:normal;}
.fnt2 {fill:#000000;
    font-family:Times; font-size:12pt; font-weight:normal; font-style:italic;}
.label {fill:#000;
  text-anchor:middle;
  font-size:16pt; font-weight:bold; font-family:Sans;}
.link {fill: #0D47A1;}
.link:hover {fill: #0D47A1; text-decoration:underline;}
.link:visited {fill: #4A148C;}
]]>
</style>
<defs>
<marker id="clock" markerWidth="8.0" markerHeight="15.0" viewBox="0 0 8.0 15.0" refX="0.5" refY="7.5" orient="auto" markerUnits="userSpaceOnUse">
<g transform="translate(0.5,7.5)"><path d="M 0 -7 L 0 7 L 7 0 z" stroke="#000000" fill="#FFFFFF" stroke-width="1"/>
</g>
</marker>
<marker id="arrow_fwd" markerWidth="8.0" markerHeight="8.0" viewBox="0 0 8.0 8.0" refX="3.2" refY="4.0" orient="auto" markerUnits="userSpaceOnUse">
<g transform="translate(-0.0,4.0)"><path d="M 0 -4 C 2 -1, 2 1, 0 4 L 8 0 z" stroke="none" fill="#000000"/>
</g>
</marker>
<marker id="arrow_back" markerWidth="8.0" markerHeight="8.0" viewBox="0 0 8.0 8.0" refX="4.8" refY="4.0" orient="auto" markerUnits="userSpaceOnUse">
<g transform="translate(8.0,4.0)"><path d="M 0 -4 C -2 -1, -2 1, 0 4 L -8 0 z" stroke="none" fill="#000000"/>
</g>
</marker>
</defs>
<rect x="-108" y="-20" width="100%" height="100%" fill="white"/><g transform="translate(0,0)">
<rect x="0" y="-15.0" width="280" height="30.0" stroke="#646464" fill="#C8C8C8" stroke-width="1"/>
<g transform="translate(0,0)">
<line x1="-20" y1="0" x2="0" y2="0" stroke="#000000" fill="none" stroke-width="1"/>
<text class="fnt1" x="10" y="0" text-anchor="normal" dy="7.0">RAM_ADDR_WIDTH</text>
</g>
</g>
<rect x="1.0" y="-14.0" width="278.0" height="28.0" stroke="#646464" fill="none" stroke-width="3"/>
<g transform="translate(0,38.0)">
<rect x="0" y="-15.0" width="280" height="133.0" stroke="#000000" fill="#C5DBFC" stroke-width="1"/>
<text class="fnt2" x="140.0" y="0" text-anchor="middle" dy="6.5">LPC/SPI module interface</text>
<g transform="translate(0,23)">
<line x1="-20" y1="0" x2="0" y2="0" stroke="#000000" fill="none" stroke-width="1" marker-end="url(#clock)"/>
<text class="fnt1" x="10" y="0" text-anchor="normal" dy="7.0">clk_i</text>
<text class="fnt1" x="-30" y="0" text-anchor="end" dy="7.0" style="fill:#969696">wire</text>
</g>
<g transform="translate(0,43)">
<line x1="-20" y1="0" x2="0" y2="0" stroke="#000000" fill="none" stroke-width="3"/>
<text class="fnt1" x="10" y="0" text-anchor="normal" dy="7.0">addr_i</text>
<text class="fnt1" x="-30" y="0" text-anchor="end" dy="7.0" style="fill:#969696">wire <tspan fill="#039BE5">[15:0]</tspan></text>
</g>
<g transform="translate(0,63)">
<line x1="-20" y1="0" x2="0" y2="0" stroke="#000000" fill="none" stroke-width="1"/>
<text class="fnt1" x="10" y="0" text-anchor="normal" dy="7.0">data_wr</text>
<text class="fnt1" x="-30" y="0" text-anchor="end" dy="7.0" style="fill:#969696">wire</text>
</g>
<g transform="translate(0,83)">
<line x1="-20" y1="0" x2="0" y2="0" stroke="#000000" fill="none" stroke-width="1"/>
<text class="fnt1" x="10" y="0" text-anchor="normal" dy="7.0">data_req</text>
<text class="fnt1" x="-30" y="0" text-anchor="end" dy="7.0" style="fill:#969696">wire</text>
</g>
<g transform="translate(280,23)">
<line x1="16.16" y1="4.702643708725836e-16" x2="3.84" y2="-4.702643708725836e-16" stroke="#000000" fill="none" stroke-width="3" marker-start="url(#arrow_back)" marker-end="url(#arrow_fwd)"/>
<text class="fnt1" x="-10" y="0" text-anchor="end" dy="7.0">data_io</text>
<text class="fnt1" x="30" y="0" text-anchor="normal" dy="7.0" style="fill:#969696">wire <tspan fill="#039BE5">[7:0]</tspan></text>
</g>
<g transform="translate(280,43)">
<line x1="20" y1="0" x2="0" y2="0" stroke="#000000" fill="none" stroke-width="1"/>
<text class="fnt1" x="-10" y="0" text-anchor="end" dy="7.0">wr_done</text>
<text class="fnt1" x="30" y="0" text-anchor="normal" dy="7.0" style="fill:#969696">wire</text>
</g>
<g transform="translate(280,63)">
<line x1="20" y1="0" x2="0" y2="0" stroke="#000000" fill="none" stroke-width="1"/>
<text class="fnt1" x="-10" y="0" text-anchor="end" dy="7.0">data_rd</text>
<text class="fnt1" x="30" y="0" text-anchor="normal" dy="7.0" style="fill:#969696">wire</text>
</g>
<g transform="translate(280,83)">
<line x1="20" y1="0" x2="0" y2="0" stroke="#000000" fill="none" stroke-width="3"/>
<text class="fnt1" x="-10" y="0" text-anchor="end" dy="7.0">irq_num</text>
<text class="fnt1" x="30" y="0" text-anchor="normal" dy="7.0" style="fill:#969696">wire <tspan fill="#039BE5">[3:0]</tspan></text>
</g>
<g transform="translate(280,103)">
<line x1="20" y1="0" x2="0" y2="0" stroke="#000000" fill="none" stroke-width="1"/>
<text class="fnt1" x="-10" y="0" text-anchor="end" dy="7.0">interrupt</text>
<text class="fnt1" x="30" y="0" text-anchor="normal" dy="7.0" style="fill:#969696">wire</text>
</g>
</g>
<g transform="translate(0,171.0)">
<rect x="0" y="-15.0" width="280" height="73.0" stroke="#000000" fill="#E7FDBA" stroke-width="1"/>
<text class="fnt2" x="140.0" y="0" text-anchor="middle" dy="6.5">MCU interrupts interface</text>
<g transform="translate(0,23)">
<line x1="-20" y1="0" x2="0" y2="0" stroke="#000000" fill="none" stroke-width="1"/>
<text class="fnt1" x="10" y="0" text-anchor="normal" dy="7.0">complete</text>
<text class="fnt1" x="-30" y="0" text-anchor="end" dy="7.0" style="fill:#969696">wire</text>
</g>
<g transform="translate(280,23)">
<line x1="20" y1="0" x2="0" y2="0" stroke="#000000" fill="none" stroke-width="1"/>
<text class="fnt1" x="-10" y="0" text-anchor="end" dy="7.0">exec</text>
<text class="fnt1" x="30" y="0" text-anchor="normal" dy="7.0" style="fill:#969696">wire</text>
</g>
<g transform="translate(280,43)">
<line x1="20" y1="0" x2="0" y2="0" stroke="#000000" fill="none" stroke-width="1"/>
<text class="fnt1" x="-10" y="0" text-anchor="end" dy="7.0">abort</text>
<text class="fnt1" x="30" y="0" text-anchor="normal" dy="7.0" style="fill:#969696">wire</text>
</g>
</g>
<g transform="translate(0,244.0)">
<rect x="0" y="-15.0" width="280" height="113.0" stroke="#000000" fill="#FFAFFD" stroke-width="1"/>
<text class="fnt2" x="140.0" y="0" text-anchor="middle" dy="6.5">RAM interface</text>
<g transform="translate(280,23)">
<line x1="20" y1="0" x2="0" y2="0" stroke="#000000" fill="none" stroke-width="3"/>
<text class="fnt1" x="-10" y="0" text-anchor="end" dy="7.0">RAM_addr</text>
<text class="fnt1" x="30" y="0" text-anchor="normal" dy="7.0" style="fill:#969696">wire <tspan fill="#039BE5">[RAM_ADDR_WIDTH-1:0]</tspan></text>
</g>
<g transform="translate(280,43)">
<line x1="16.16" y1="4.702643708725836e-16" x2="3.84" y2="-4.702643708725836e-16" stroke="#000000" fill="none" stroke-width="3" marker-start="url(#arrow_back)" marker-end="url(#arrow_fwd)"/>
<text class="fnt1" x="-10" y="0" text-anchor="end" dy="7.0">RAM_data</text>
<text class="fnt1" x="30" y="0" text-anchor="normal" dy="7.0" style="fill:#969696">wire <tspan fill="#039BE5">[7:0]</tspan></text>
</g>
<g transform="translate(280,63)">
<line x1="20" y1="0" x2="0" y2="0" stroke="#000000" fill="none" stroke-width="1"/>
<text class="fnt1" x="-10" y="0" text-anchor="end" dy="7.0">RAM_rd</text>
<text class="fnt1" x="30" y="0" text-anchor="normal" dy="7.0" style="fill:#969696">wire</text>
</g>
<g transform="translate(280,83)">
<line x1="20" y1="0" x2="0" y2="0" stroke="#000000" fill="none" stroke-width="1"/>
<text class="fnt1" x="-10" y="0" text-anchor="end" dy="7.0">RAM_wr</text>
<text class="fnt1" x="30" y="0" text-anchor="normal" dy="7.0" style="fill:#969696">wire</text>
</g>
</g>
<rect x="1.0" y="24.0" width="278.0" height="317.0" stroke="#000000" fill="none" stroke-width="3"/>
</svg>
